<svg width="96" height="96" viewBox="0 0 96 96" fill="none" xmlns="http://www.w3.org/2000/svg">
<path d="M62.2313 9.15062L58.194 14.8728C64.5065 17.8887 69.0604 23.5078 69.5804 30.0622H26.5256C27.0423 23.5078 31.4935 17.8921 37.806 14.8728L33.7688 9.15062C33.5601 8.73452 33.6661 8.31842 33.9774 8.1087C34.2887 7.89899 34.7027 8.00551 35.014 8.31842L39.1539 14.3535C41.8465 13.3116 44.8471 12.6891 48.0563 12.6891C51.2655 12.6891 54.1635 13.315 56.9587 14.3535L61.0986 8.31842C61.3072 8.00551 61.7212 7.90232 62.0292 8.1087C62.3372 8.31509 62.4432 8.73452 62.2379 9.15062H62.2313ZM38.9419 24.027C40.2866 24.027 41.3232 22.9851 41.3232 21.6336C41.3232 20.3853 40.2866 19.2402 38.9419 19.2402C37.7 19.2402 36.5607 20.3853 36.5607 21.6336C36.5607 22.9851 37.7 24.027 38.9419 24.027ZM57.3661 24.027C58.7107 24.027 59.7473 22.9851 59.7473 21.6336C59.7473 20.3853 58.7107 19.2402 57.3661 19.2402C56.1241 19.2402 54.9848 20.3853 54.9848 21.6336C54.9848 22.9851 56.1241 24.027 57.3661 24.027ZM14 57.2086V37.9647C14 35.2584 16.0699 32.9715 18.8652 32.9715C21.5578 32.9715 23.6277 35.2618 23.6277 37.9647V57.2086C23.6277 60.0181 21.5578 62.2018 18.8652 62.2018C16.0699 62.2018 14 60.0181 14 57.2086ZM72.2696 57.2086V37.9647C72.2696 35.2584 74.4422 32.9715 77.1348 32.9715C79.8274 32.9715 82 35.2618 82 37.9647V57.2086C82 60.0181 79.8274 62.2018 77.1348 62.2018C74.4422 62.2018 72.2696 60.0181 72.2696 57.2086ZM26.6283 68.3401V33.0747H69.683V68.3401C69.683 70.4206 67.9244 72.1882 65.8545 72.1882H61.6119V83.11C61.6119 85.8163 59.4393 88 56.7467 88C54.0542 88 51.8815 85.8163 51.8815 83.11V72.1882H44.3271V83.11C44.3271 85.8163 42.2572 88 39.5646 88C36.7693 88 34.6994 85.8163 34.6994 83.11V72.1882H30.3509C28.3836 72.1882 26.6283 70.4206 26.6283 68.3401Z" fill="white"/>
</svg>
