<svg width="92" height="92" viewBox="0 0 92 92" fill="none" xmlns="http://www.w3.org/2000/svg">
<path d="M59.6384 8.76936L55.7694 14.2532C61.8188 17.1434 66.183 22.5283 66.6813 28.8096H25.4205C25.9156 22.5283 30.1813 17.1466 36.2308 14.2532L32.3618 8.76936C32.1618 8.3706 32.2634 7.97184 32.5618 7.77086C32.8601 7.56988 33.2568 7.67197 33.5552 7.97184L37.5226 13.7555C40.103 12.757 42.9785 12.1604 46.054 12.1604C49.1296 12.1604 51.9067 12.7602 54.5855 13.7555L58.5529 7.97184C58.7528 7.67197 59.1496 7.57307 59.4448 7.77086C59.7399 7.96865 59.8415 8.3706 59.6447 8.76936H59.6384ZM37.3194 23.0259C38.6081 23.0259 39.6015 22.0274 39.6015 20.7323C39.6015 19.536 38.6081 18.4386 37.3194 18.4386C36.1292 18.4386 35.0374 19.536 35.0374 20.7323C35.0374 22.0274 36.1292 23.0259 37.3194 23.0259ZM54.9759 23.0259C56.2645 23.0259 57.2579 22.0274 57.2579 20.7323C57.2579 19.536 56.2645 18.4386 54.9759 18.4386C53.7857 18.4386 52.6939 19.536 52.6939 20.7323C52.6939 22.0274 53.7857 23.0259 54.9759 23.0259ZM13.4167 54.8249V36.3829C13.4167 33.7893 15.4004 31.5977 18.0792 31.5977C20.6596 31.5977 22.6433 33.7925 22.6433 36.3829V54.8249C22.6433 57.5173 20.6596 59.6101 18.0792 59.6101C15.4004 59.6101 13.4167 57.5173 13.4167 54.8249ZM69.2585 54.8249V36.3829C69.2585 33.7893 71.3406 31.5977 73.9209 31.5977C76.5013 31.5977 78.5834 33.7925 78.5834 36.3829V54.8249C78.5834 57.5173 76.5013 59.6101 73.9209 59.6101C71.3406 59.6101 69.2585 57.5173 69.2585 54.8249ZM25.5189 65.4926V31.6966H66.7797V65.4926C66.7797 67.4864 65.0943 69.1804 63.1106 69.1804H59.0448V79.6471C59.0448 82.2406 56.9628 84.3334 54.3824 84.3334C51.802 84.3334 49.7199 82.2406 49.7199 79.6471V69.1804H42.4802V79.6471C42.4802 82.2406 40.4965 84.3334 37.9161 84.3334C35.2374 84.3334 33.2537 82.2406 33.2537 79.6471V69.1804H29.0863C27.201 69.1804 25.5189 67.4864 25.5189 65.4926Z" fill="white"/>
</svg>
