<svg width="96" height="96" viewBox="0 0 96 96" fill="none" xmlns="http://www.w3.org/2000/svg">
<path d="M64.0427 8C64.2368 8 64.4309 8 64.636 8C65.1121 13.6418 62.867 17.8573 60.1383 20.91C57.4609 23.9417 53.7947 26.882 47.8649 26.4359C47.4693 20.8749 49.7182 16.972 52.4432 13.9263C54.9704 11.0879 59.6036 8.56207 64.0427 8Z" fill="white"/>
<path d="M82 66.7203C82 66.7765 82 66.8257 82 66.8784C80.3335 71.7192 77.9565 75.868 75.0557 79.7182C72.4076 83.2135 69.1626 87.9174 63.3683 87.9174C58.3615 87.9174 55.0359 84.8295 49.9046 84.7452C44.4766 84.6609 41.4915 87.3272 36.5287 87.9982C35.961 87.9982 35.3933 87.9982 34.8366 87.9982C31.1923 87.4923 28.2512 84.7241 26.1086 82.2299C19.7906 74.8598 14.9083 65.3397 14 53.1569C14 51.9625 14 50.7716 14 49.5772C14.3846 40.8581 18.8017 33.769 24.6728 30.3334C27.7714 28.5067 32.031 26.9504 36.7741 27.646C38.8068 27.9481 40.8836 28.6156 42.7039 29.276C44.429 29.9118 46.5862 31.0395 48.63 30.9798C50.0144 30.9411 51.3916 30.2491 52.787 29.7608C56.8745 28.3451 60.8814 26.7221 66.1629 27.4844C72.5102 28.4048 77.0152 31.1097 79.7988 35.2831C74.4294 38.5607 70.1844 43.4999 70.9096 51.9344C71.5542 59.5961 76.1984 64.0786 82 66.7203Z" fill="white"/>
</svg>
