<svg width="92" height="92" viewBox="0 0 92 92" fill="none" xmlns="http://www.w3.org/2000/svg">
<path d="M61.3743 7.66669C61.5603 7.66669 61.7463 7.66669 61.9429 7.66669C62.3992 13.0734 60.2476 17.1133 57.6326 20.0388C55.0668 22.9441 51.5533 25.7619 45.8706 25.3344C45.4915 20.0051 47.6467 16.2649 50.2581 13.3461C52.68 10.6259 57.1202 8.20534 61.3743 7.66669Z" fill="white"/>
<path d="M78.5834 63.9403C78.5834 63.9942 78.5834 64.0413 78.5834 64.0918C76.9864 68.7309 74.7084 72.7069 71.9285 76.3966C69.3907 79.7463 66.2809 84.2542 60.728 84.2542C55.9299 84.2542 52.7428 81.295 47.8253 81.2142C42.6235 81.1334 39.7628 83.6886 35.0068 84.3316C34.4627 84.3316 33.9187 84.3316 33.3851 84.3316C29.8927 83.8468 27.0742 81.194 25.0208 78.8037C18.9661 71.7407 14.2872 62.6173 13.4167 50.9421C13.4167 49.7974 13.4167 48.6562 13.4167 47.5115C13.7853 39.1557 18.0184 32.362 23.6449 29.0695C26.6143 27.3189 30.6965 25.8275 35.2419 26.4941C37.19 26.7836 39.1801 27.4233 40.9246 28.0562C42.5778 28.6655 44.6452 29.7462 46.6038 29.689C47.9306 29.6519 49.2503 28.9887 50.5877 28.5208C54.5048 27.164 58.3448 25.6087 63.4062 26.3392C69.489 27.2213 73.8063 29.8135 76.4739 33.813C71.3282 36.954 67.2602 41.6874 67.9551 49.7705C68.5729 57.113 73.0236 61.4087 78.5834 63.9403Z" fill="white"/>
</svg>
