<svg width="96" height="96" viewBox="0 0 96 96" fill="none" xmlns="http://www.w3.org/2000/svg">
<path fill-rule="evenodd" clip-rule="evenodd" d="M48 8C70.0914 8 88 25.9086 88 48C88 70.0914 70.0914 88 48 88C25.9086 88 8 70.0914 8 48C8 25.9086 25.9086 8 48 8ZM16.2578 52C17.7963 64.3338 26.3476 74.478 37.8008 78.3281C32.248 70.4736 28.9015 61.4317 28.1602 52H16.2578ZM67.8398 52C67.0984 61.4324 63.7489 70.4732 58.1953 78.3281C69.6503 74.4789 78.2035 64.3351 79.7422 52H67.8398ZM36.1875 52C37.0837 61.5694 41.1788 70.727 48 78.2656C54.8212 70.727 58.9163 61.5694 59.8125 52H36.1875ZM37.8008 17.668C26.347 21.5178 17.7964 31.6657 16.2578 44H28.1602C28.9016 34.5673 32.2469 25.5231 37.8008 17.668ZM48 17.7305C41.1776 25.2696 37.0833 34.4293 36.1875 44H59.8125C58.9167 34.4293 54.8224 25.2696 48 17.7305ZM58.1953 17.668C63.75 25.5235 67.0984 34.5665 67.8398 44H79.7422C78.2035 31.6645 69.6509 21.5169 58.1953 17.668Z" fill="white"/>
</svg>
