<svg width="92" height="92" viewBox="0 0 92 92" fill="none" xmlns="http://www.w3.org/2000/svg">
<path fill-rule="evenodd" clip-rule="evenodd" d="M46.0001 7.66669C67.171 7.66669 84.3334 24.8291 84.3334 46C84.3334 67.1709 67.171 84.3334 46.0001 84.3334C24.8292 84.3334 7.66675 67.1709 7.66675 46C7.66675 24.8291 24.8292 7.66669 46.0001 7.66669ZM15.5805 49.8334C17.0549 61.6533 25.2499 71.3748 36.2258 75.0645C30.9044 67.5372 27.6974 58.872 26.9869 49.8334H15.5805ZM65.0133 49.8334C64.3028 58.8727 61.0928 67.5368 55.7706 75.0645C66.7483 71.3756 74.9451 61.6545 76.4197 49.8334H65.0133ZM34.6798 49.8334C35.5386 59.004 39.4631 67.78 46.0001 75.0046C52.5371 67.78 56.4616 59.004 57.3204 49.8334H34.6798ZM36.2258 16.9318C25.2493 20.6212 17.0549 30.3464 15.5805 42.1667H26.9869C27.6974 33.127 30.9034 24.4597 36.2258 16.9318ZM46.0001 16.9917C39.4619 24.2167 35.5383 32.9948 34.6798 42.1667H57.3204C56.4619 32.9948 52.5382 24.2167 46.0001 16.9917ZM55.7706 16.9318C61.0938 24.4601 64.3027 33.1263 65.0133 42.1667H76.4197C74.9451 30.3451 66.7488 20.6204 55.7706 16.9318Z" fill="white"/>
</svg>
